<?xml version="1.0" encoding="UTF-8" standalone="no"?>
<!-- Created with Inkscape (http://www.inkscape.org/) -->

<svg
   xmlns:dc="http://purl.org/dc/elements/1.1/"
   xmlns:cc="http://creativecommons.org/ns#"
   xmlns:rdf="http://www.w3.org/1999/02/22-rdf-syntax-ns#"
   xmlns:svg="http://www.w3.org/2000/svg"
   xmlns="http://www.w3.org/2000/svg"
   xmlns:sodipodi="http://sodipodi.sourceforge.net/DTD/sodipodi-0.dtd"
   xmlns:inkscape="http://www.inkscape.org/namespaces/inkscape"
   inkscape:export-ydpi="9"
   inkscape:export-xdpi="9"
   inkscape:export-filename="Z:\Clipboard\favicon.png"
   sodipodi:docname="marslogo_dot.svg"
   inkscape:version="0.48.4 r9939"
   version="1.1"
   id="svg2"
   height="1000"
   width="1000">
  <defs
     id="defs4">
    <inkscape:path-effect
       effect="construct_grid"
       id="path-effect3068"
       is_visible="true"
       nr_x="5"
       nr_y="5" />
  </defs>
  <sodipodi:namedview
     id="base"
     pagecolor="#ffffff"
     bordercolor="#666666"
     borderopacity="1"
     inkscape:pageopacity="0"
     inkscape:pageshadow="2"
     inkscape:zoom="0.35355339"
     inkscape:cx="1371.7589"
     inkscape:cy="266.33624"
     inkscape:document-units="px"
     inkscape:current-layer="layer1"
     showgrid="true"
     showborder="true"
     inkscape:showpageshadow="false"
     showguides="true"
     inkscape:guide-bbox="true"
     inkscape:window-width="1920"
     inkscape:window-height="1137"
     inkscape:window-x="-8"
     inkscape:window-y="-8"
     inkscape:window-maximized="1"
     borderlayer="true"
     inkscape:snap-page="false">
    <sodipodi:guide
       orientation="1,0"
       position="497.80317,-158.39192"
       id="guide3196" />
    <sodipodi:guide
       orientation="0,1"
       position="500,500"
       id="guide3198" />
  </sodipodi:namedview>
  <metadata
     id="metadata7">
    <rdf:RDF>
      <cc:Work
         rdf:about="">
        <dc:format>image/svg+xml</dc:format>
        <dc:type
           rdf:resource="http://purl.org/dc/dcmitype/StillImage" />
        <dc:title></dc:title>
      </cc:Work>
    </rdf:RDF>
  </metadata>
  <g
     inkscape:label="Außenring"
     inkscape:groupmode="layer"
     id="layer1"
     transform="translate(0,-52.362183)"
     style="display:inline">
    <path
       style="fill:#cc861d;fill-opacity:1;stroke:none;display:inline"
       d="M 484.9359,801.81226 C 387.19637,795.9252 300.35219,730.89894 266.49355,638.24939 249.54347,591.86794 246.90951,536.4423 259.43061,489.62636 c 19.56037,-73.13533 70.45513,-133.41408 138.8179,-164.41314 32.78611,-14.86683 63.92086,-21.55827 101.29359,-21.7699 39.82749,-0.22549 68.30062,5.75807 104.91225,22.04709 67.05412,29.83326 120.3112,93.18168 138.41137,164.63793 10.30152,40.66871 10.1973,87.42556 -0.28141,126.23316 -28.22056,104.51416 -119.17689,179.09002 -226.24509,185.5003 -8.4351,0.50502 -22.56663,0.48275 -31.40339,-0.0494 l 0,0 z"
       id="path3012-9-8"
       inkscape:connector-curvature="0" />
    <path
       style="fill:#cc861d;fill-opacity:1"
       d="m 500.00002,53.3622 c -97.98082,0 -189.37164,28.249151 -266.46601,77.03311 2.69457,3.2034 5.22369,6.53205 7.54737,10.01119 74.98598,-47.230423 163.75193,-74.569301 258.91864,-74.569301 268.70034,0 486.52501,217.824651 486.52501,486.524971 0,268.70033 -217.82467,486.52503 -486.52501,486.52503 -268.70034,0 -486.52502,-217.8247 -486.52502,-486.52503 0,-95.58722 27.577354,-184.72192 75.193063,-259.91661 -3.468381,-2.32077 -6.821991,-4.81829 -10.011192,-7.51619 C 29.494455,362.22705 1,453.96944 1,552.36217 1,827.95226 224.40992,1051.3622 500.00002,1051.3622 775.59012,1051.3622 999,827.95226 999,552.36217 999,276.77209 775.59012,53.3622 500.00002,53.3622 z"
       id="path3029"
       inkscape:connector-curvature="0" />
    <path
       style="fill:#cc861d;fill-opacity:1;display:inline"
       d="M 828.85166,367.28193 C 728.64511,186.50455 500.86261,121.18896 320.08525,221.39548 139.30786,321.60203 73.992293,549.38453 174.19884,730.16192 274.40537,910.93929 502.18787,976.2549 682.96527,876.04835 c 60.65965,-33.62421 108.32068,-81.60712 141.08862,-137.3639 -3.03776,-0.91151 -6.00571,-2.0592 -8.85715,-3.43446 -31.92298,53.79689 -78.10636,100.0988 -136.76749,132.6152 C 502.17131,965.56655 280.08338,901.88388 182.382,725.62592 84.680617,549.36798 148.36331,327.28001 324.62124,229.57866 c 176.25795,-97.70139 398.34589,-34.01868 496.04727,142.23927 44.29805,79.9158 55.43591,169.26016 37.93063,252.15337 3.02153,0.90464 5.95859,2.04658 8.81474,3.42231 18.41024,-85.44298 7.14084,-177.6612 -38.56222,-260.11168 z"
       id="path3029-0"
       inkscape:connector-curvature="0" />
    <path
       style="fill:#cc861d;fill-opacity:1;stroke:none;display:inline"
       d="M 144.24715,302.69642 C 105.144,300.34061 70.399836,274.31911 56.853841,237.24363 c -6.7813,-18.5604 -7.835083,-40.74002 -2.8257,-59.47432 7.825612,-29.26648 28.187328,-53.38817 55.537559,-65.79303 13.11689,-5.94923 25.57312,-8.62695 40.52503,-8.71164 15.93398,-0.0903 27.32536,2.3042 41.97277,8.82255 26.82666,11.93837 48.13348,37.28843 55.37491,65.883 4.12138,16.27437 4.07969,34.985 -0.11259,50.51461 -11.29033,41.82331 -47.67969,71.66626 -90.51499,74.23145 -3.37467,0.20209 -9.02834,0.19319 -12.56371,-0.0199 l 0,0 z"
       id="path3012-9"
       inkscape:connector-curvature="0" />
    <path
       style="fill:#cc861d;fill-opacity:1;stroke:none;display:inline"
       d="m 799.23728,702.40168 c -8.44856,-17.67123 -5.49128,-39.17294 7.43858,-54.08403 6.47283,-7.46465 15.91675,-13.30193 25.32374,-15.65257 14.69549,-3.67212 30.17991,-0.61495 42.23452,8.33859 5.78127,4.29402 9.97171,9.09216 13.63315,15.61024 3.90184,6.94628 5.61615,12.5082 6.31623,20.49373 1.28214,14.62547 -4.63882,30.08816 -15.38816,40.18637 -6.11787,5.74728 -14.31033,10.2646 -22.11776,12.19581 -21.02658,5.20081 -42.89816,-3.47854 -54.40342,-21.58902 -0.90643,-1.4268 -2.27302,-3.90137 -3.03677,-5.4991 l 2e-5,-10e-6 z"
       id="path3012-9-4"
       inkscape:connector-curvature="0" />
  </g>
  <g
     transform="translate(0,-52.362183)"
     inkscape:groupmode="layer"
     id="g3914"
     inkscape:label="1. Ring"
     style="display:inline" />
  <g
     style="display:inline"
     inkscape:label="2. Ring"
     id="g3192"
     inkscape:groupmode="layer"
     transform="translate(0,-52.362183)" />
  <g
     inkscape:groupmode="layer"
     id="layer3"
     inkscape:label="Text"
     transform="translate(0,-52.362183)"
     style="display:none">
    <flowRoot
       transform="translate(114.86329,-50.676158)"
       xml:space="preserve"
       id="flowRoot3098"
       style="font-size:225px;font-style:normal;font-weight:normal;line-height:125%;letter-spacing:0px;word-spacing:0px;fill:#000000;fill-opacity:1;stroke:none;font-family:Roboto Light;-inkscape-font-specification:Roboto Light"><flowRegion
         id="flowRegion3100"><rect
           id="rect3102"
           width="621.875"
           height="265.625"
           x="106.25"
           y="482.04968"
           style="font-size:225px;font-family:Roboto Light;-inkscape-font-specification:Roboto Light"
           ry="0" /></flowRegion><flowPara
         id="flowPara3104"
         style="font-size:225px;font-style:normal;font-variant:normal;font-weight:200;font-stretch:normal;fill:#ff7f2a;font-family:Roboto Th;-inkscape-font-specification:Roboto Th">MARS</flowPara></flowRoot>  </g>
</svg>
